<?xml version="1.0" encoding="utf-8"?>
<!-- Generator: Adobe Illustrator 17.0.0, SVG Export Plug-In . SVG Version: 6.00 Build 0)  -->
<!DOCTYPE svg PUBLIC "-//W3C//DTD SVG 1.1//EN" "http://www.w3.org/Graphics/SVG/1.1/DTD/svg11.dtd">
<svg version="1.1" id="Layer_1" xmlns="http://www.w3.org/2000/svg" xmlns:xlink="http://www.w3.org/1999/xlink" x="0px" y="0px"
	 width="452px" height="202px" viewBox="0 0 452 202" enable-background="new 0 0 452 202" xml:space="preserve">
<circle fill="none" stroke="#000000" stroke-miterlimit="10" cx="34.467" cy="167.533" r="33.467"/>
<circle fill="none" stroke="#000000" stroke-miterlimit="10" cx="162.156" cy="167.533" r="33.467"/>
<circle fill="none" stroke="#000000" stroke-miterlimit="10" cx="289.844" cy="167.533" r="33.467"/>
<circle fill="none" stroke="#000000" stroke-miterlimit="10" cx="417.533" cy="167.533" r="33.467"/>
<rect x="70.978" y="2" fill="none" stroke="#000000" stroke-miterlimit="10" width="54.667" height="54.667"/>
<rect x="198.667" y="2" fill="none" stroke="#000000" stroke-miterlimit="10" width="54.667" height="54.667"/>
<rect x="326.356" y="2" fill="none" stroke="#000000" stroke-miterlimit="10" width="54.667" height="54.667"/>
<line fill="none" stroke="#000000" stroke-miterlimit="10" x1="34.467" y1="134.067" x2="98.311" y2="56.667"/>
<line fill="none" stroke="#000000" stroke-miterlimit="10" x1="98.311" y1="56.667" x2="162.156" y2="134.067"/>
<line fill="none" stroke="#000000" stroke-miterlimit="10" x1="162.156" y1="134.067" x2="226" y2="56.667"/>
<line fill="none" stroke="#000000" stroke-miterlimit="10" x1="226" y1="56.667" x2="289.844" y2="134.067"/>
<line fill="none" stroke="#000000" stroke-miterlimit="10" x1="289.844" y1="134.067" x2="353.689" y2="56.667"/>
<line fill="none" stroke="#000000" stroke-miterlimit="10" x1="353.689" y1="56.667" x2="417.533" y2="134.067"/>
<g>
	<defs>
		<rect id="SVGID_1_" x="17.967" y="156.033" width="33" height="23"/>
	</defs>
	<clipPath id="SVGID_2_">
		<use xlink:href="#SVGID_1_"  overflow="visible"/>
	</clipPath>
	<path clip-path="url(#SVGID_2_)" d="M29.869,161.992c0.213-0.932,1.039-4.234,3.542-4.234c0.186,0,1.038,0,1.811,0.453
		c-1.012,0.186-1.731,1.092-1.731,1.944c0,0.586,0.399,1.251,1.358,1.251c0.799,0,1.944-0.639,1.944-2.077
		c0-1.864-2.13-2.37-3.328-2.37c-2.104,0-3.355,1.917-3.781,2.716c-0.905-2.37-2.849-2.716-3.888-2.716
		c-3.728,0-5.778,4.633-5.778,5.539c0,0.346,0.373,0.346,0.426,0.346c0.293,0,0.399-0.08,0.479-0.399
		c1.225-3.808,3.595-4.686,4.82-4.686c0.666,0,1.917,0.32,1.917,2.396c0,1.118-0.586,3.515-1.917,8.547
		c-0.586,2.237-1.837,3.728-3.435,3.728c-0.213,0-1.038,0-1.784-0.453c0.905-0.186,1.678-0.932,1.678-1.944
		c0-0.959-0.772-1.252-1.305-1.252c-1.092,0-1.997,0.932-1.997,2.077c0,1.651,1.811,2.37,3.382,2.37c2.37,0,3.675-2.503,3.781-2.743
		c0.426,1.331,1.731,2.743,3.861,2.743c3.701,0,5.752-4.633,5.752-5.538c0-0.346-0.32-0.346-0.426-0.346
		c-0.32,0-0.399,0.133-0.453,0.399c-1.198,3.834-3.648,4.686-4.793,4.686c-1.385,0-1.97-1.145-1.97-2.37
		c0-0.772,0.213-1.571,0.612-3.142L29.869,161.992"/>
	<path clip-path="url(#SVGID_2_)" d="M46.751,162.285c0-0.666-0.027-0.692-0.746-0.692c-1.598,1.571-3.888,1.598-4.899,1.598v0.905
		c0.586,0,2.237,0,3.621-0.692v12.781c0,0.825,0,1.145-2.503,1.145h-0.959v0.905c0.453-0.027,3.541-0.107,4.473-0.107
		c0.772,0,3.941,0.08,4.473,0.107v-0.905h-0.932c-2.53,0-2.53-0.32-2.53-1.145V162.285"/>
</g>
<g>
	<defs>
		<rect id="SVGID_3_" x="145.156" y="156.033" width="34" height="23"/>
	</defs>
	<clipPath id="SVGID_4_">
		<use xlink:href="#SVGID_3_"  overflow="visible"/>
	</clipPath>
	<path clip-path="url(#SVGID_4_)" d="M157.058,161.992c0.213-0.932,1.039-4.234,3.542-4.234c0.186,0,1.038,0,1.811,0.453
		c-1.012,0.186-1.731,1.092-1.731,1.944c0,0.586,0.399,1.251,1.358,1.251c0.799,0,1.944-0.639,1.944-2.077
		c0-1.864-2.13-2.37-3.328-2.37c-2.104,0-3.355,1.917-3.781,2.716c-0.905-2.37-2.849-2.716-3.888-2.716
		c-3.728,0-5.778,4.633-5.778,5.539c0,0.346,0.373,0.346,0.426,0.346c0.293,0,0.399-0.08,0.479-0.399
		c1.225-3.808,3.595-4.686,4.82-4.686c0.666,0,1.917,0.32,1.917,2.396c0,1.118-0.586,3.515-1.917,8.547
		c-0.586,2.237-1.837,3.728-3.435,3.728c-0.213,0-1.038,0-1.784-0.453c0.905-0.186,1.678-0.932,1.678-1.944
		c0-0.959-0.772-1.252-1.305-1.252c-1.092,0-1.997,0.932-1.997,2.077c0,1.651,1.811,2.37,3.382,2.37c2.37,0,3.675-2.503,3.781-2.743
		c0.426,1.331,1.731,2.743,3.861,2.743c3.701,0,5.752-4.633,5.752-5.538c0-0.346-0.32-0.346-0.426-0.346
		c-0.32,0-0.399,0.133-0.453,0.399c-1.198,3.834-3.648,4.686-4.793,4.686c-1.385,0-1.97-1.145-1.97-2.37
		c0-0.772,0.213-1.571,0.612-3.142L157.058,161.992"/>
	<path clip-path="url(#SVGID_4_)" d="M178.2,173.681h-0.852c-0.053,0.533-0.32,2.024-0.639,2.263c-0.213,0.16-2.13,0.16-2.476,0.16
		h-4.607c2.61-2.343,3.488-3.036,5.006-4.207c1.864-1.491,3.568-3.036,3.568-5.405c0-3.036-2.636-4.899-5.858-4.899
		c-3.115,0-5.219,2.183-5.219,4.473c0,1.278,1.092,1.411,1.331,1.411c0.612,0,1.331-0.426,1.331-1.331
		c0-0.453-0.16-1.331-1.464-1.331c0.772-1.757,2.476-2.317,3.648-2.317c2.503,0,3.808,1.944,3.808,3.994
		c0,2.157-1.544,3.888-2.343,4.793l-6.044,5.965c-0.266,0.24-0.266,0.293-0.266,0.985h10.331L178.2,173.681"/>
</g>
<g>
	<defs>
		<rect id="SVGID_5_" x="272.844" y="156.033" width="34" height="23"/>
	</defs>
	<clipPath id="SVGID_6_">
		<use xlink:href="#SVGID_5_"  overflow="visible"/>
	</clipPath>
	<path clip-path="url(#SVGID_6_)" d="M284.747,161.592c0.213-0.932,1.039-4.234,3.542-4.234c0.186,0,1.038,0,1.811,0.453
		c-1.012,0.186-1.731,1.092-1.731,1.944c0,0.586,0.399,1.252,1.358,1.252c0.799,0,1.944-0.639,1.944-2.077
		c0-1.864-2.13-2.37-3.328-2.37c-2.104,0-3.355,1.891-3.781,2.716c-0.905-2.37-2.849-2.716-3.888-2.716
		c-3.728,0-5.778,4.633-5.778,5.539c0,0.346,0.373,0.346,0.426,0.346c0.293,0,0.399-0.08,0.479-0.399
		c1.225-3.808,3.595-4.686,4.82-4.686c0.666,0,1.917,0.32,1.917,2.396c0,1.118-0.586,3.515-1.917,8.547
		c-0.586,2.237-1.837,3.728-3.435,3.728c-0.213,0-1.038,0-1.784-0.453c0.905-0.186,1.678-0.932,1.678-1.944
		c0-0.959-0.772-1.251-1.305-1.251c-1.092,0-1.997,0.932-1.997,2.077c0,1.651,1.811,2.37,3.382,2.37c2.37,0,3.675-2.503,3.781-2.743
		c0.426,1.331,1.731,2.743,3.861,2.743c3.701,0,5.752-4.633,5.752-5.539c0-0.346-0.32-0.346-0.426-0.346
		c-0.32,0-0.399,0.133-0.453,0.399c-1.198,3.834-3.648,4.686-4.793,4.686c-1.385,0-1.97-1.145-1.97-2.37
		c0-0.772,0.213-1.571,0.612-3.142L284.747,161.592"/>
	<path clip-path="url(#SVGID_6_)" d="M300.084,169.474c1.944,0,3.355,1.331,3.355,4.021c0,3.115-1.811,4.047-3.249,4.047
		c-1.012,0-3.222-0.293-4.26-1.757c1.172-0.053,1.438-0.879,1.438-1.411c0-0.799-0.586-1.385-1.358-1.385
		c-0.719,0-1.411,0.426-1.411,1.465c0,2.343,2.609,3.888,5.645,3.888c3.488,0,5.885-2.343,5.885-4.846
		c0-1.944-1.598-3.914-4.367-4.473c2.636-0.959,3.595-2.849,3.595-4.367c0-1.997-2.29-3.462-5.059-3.462
		c-2.796,0-4.926,1.358-4.926,3.355c0,0.852,0.559,1.331,1.305,1.331c0.772,0,1.278-0.586,1.278-1.278
		c0-0.719-0.506-1.251-1.278-1.305c0.879-1.092,2.61-1.385,3.542-1.385c1.118,0,2.689,0.559,2.689,2.743
		c0,1.039-0.346,2.21-0.985,2.982c-0.826,0.959-1.544,0.985-2.796,1.065c-0.612,0.053-0.666,0.053-0.799,0.08
		c-0.053,0-0.24,0.053-0.24,0.32c0,0.373,0.213,0.373,0.639,0.373H300.084"/>
</g>
<g>
	<defs>
		<rect id="SVGID_7_" x="400.533" y="156.033" width="34" height="23"/>
	</defs>
	<clipPath id="SVGID_8_">
		<use xlink:href="#SVGID_7_"  overflow="visible"/>
	</clipPath>
	<path clip-path="url(#SVGID_8_)" d="M412.436,161.992c0.213-0.932,1.039-4.234,3.542-4.234c0.186,0,1.038,0,1.811,0.453
		c-1.012,0.186-1.731,1.092-1.731,1.944c0,0.586,0.399,1.251,1.358,1.251c0.799,0,1.944-0.639,1.944-2.077
		c0-1.864-2.13-2.37-3.328-2.37c-2.104,0-3.355,1.917-3.781,2.716c-0.905-2.37-2.849-2.716-3.888-2.716
		c-3.728,0-5.778,4.633-5.778,5.539c0,0.346,0.373,0.346,0.426,0.346c0.293,0,0.399-0.08,0.479-0.399
		c1.225-3.808,3.595-4.686,4.82-4.686c0.666,0,1.917,0.32,1.917,2.396c0,1.118-0.586,3.515-1.917,8.547
		c-0.586,2.237-1.837,3.728-3.435,3.728c-0.213,0-1.038,0-1.784-0.453c0.905-0.186,1.678-0.932,1.678-1.944
		c0-0.959-0.772-1.252-1.305-1.252c-1.092,0-1.997,0.932-1.997,2.077c0,1.651,1.811,2.37,3.382,2.37c2.37,0,3.675-2.503,3.781-2.743
		c0.426,1.331,1.731,2.743,3.861,2.743c3.701,0,5.752-4.633,5.752-5.538c0-0.346-0.32-0.346-0.426-0.346
		c-0.32,0-0.399,0.133-0.453,0.399c-1.198,3.834-3.648,4.686-4.793,4.686c-1.385,0-1.97-1.145-1.97-2.37
		c0-0.772,0.213-1.571,0.612-3.142L412.436,161.992"/>
	<path clip-path="url(#SVGID_8_)" d="M429.451,164.042v9.186h-6.604L429.451,164.042 M434.19,174.134v-0.905h-2.769v-11.184
		c0-0.533,0-0.692-0.559-0.692c-0.293,0-0.399,0-0.666,0.346l-8.281,11.53v0.905h7.376v2.05c0,0.852,0,1.145-2.05,1.145h-0.666
		v0.905c1.252-0.053,2.849-0.107,3.754-0.107c0.932,0,2.53,0.053,3.781,0.107v-0.905h-0.666c-2.024,0-2.024-0.293-2.024-1.145v-2.05
		H434.19z"/>
</g>
<g>
	<defs>
		<rect id="SVGID_9_" x="83.811" y="12.333" width="29" height="34"/>
	</defs>
	<clipPath id="SVGID_10_">
		<use xlink:href="#SVGID_9_"  overflow="visible"/>
	</clipPath>
	<path clip-path="url(#SVGID_10_)" d="M95.793,24.179h3.089c0.719,0,1.065,0,1.065-0.719c0-0.399-0.346-0.399-0.959-0.399h-2.982
		l0.746-4.101c0.16-0.746,0.666-3.302,0.879-3.728c0.32-0.692,0.932-1.225,1.678-1.225c0.16,0,1.092,0,1.757,0.639
		c-1.571,0.16-1.944,1.411-1.944,1.944c0,0.825,0.666,1.251,1.331,1.251c0.932,0,1.97-0.772,1.97-2.157
		c0-1.651-1.651-2.476-3.115-2.476c-1.225,0-3.488,0.639-4.553,4.207c-0.213,0.746-0.32,1.118-1.198,5.645H91.08
		c-0.666,0-1.065,0-1.065,0.666c0,0.453,0.32,0.453,1.012,0.453h2.37l-2.716,14.166c-0.639,3.488-1.251,6.763-3.115,6.763
		c-0.133,0-1.038,0-1.731-0.639c1.651-0.107,1.997-1.411,1.997-1.944c0-0.825-0.666-1.251-1.331-1.251
		c-0.932,0-1.997,0.772-1.997,2.157c0,1.598,1.598,2.476,3.062,2.476c1.97,0,3.408-2.13,4.047-3.488
		c1.172-2.263,1.997-6.604,2.024-6.87L95.793,24.179"/>
	<path clip-path="url(#SVGID_10_)" d="M108.495,27.987c0-0.666-0.027-0.692-0.746-0.692c-1.598,1.571-3.888,1.598-4.899,1.598v0.905
		c0.586,0,2.237,0,3.621-0.692v12.781c0,0.825,0,1.145-2.503,1.145h-0.959v0.905c0.453-0.027,3.541-0.107,4.473-0.107
		c0.772,0,3.941,0.08,4.473,0.107v-0.905h-0.932c-2.53,0-2.53-0.32-2.53-1.145V27.987"/>
</g>
<g>
	<defs>
		<rect id="SVGID_11_" x="211.5" y="12.333" width="29" height="34"/>
	</defs>
	<clipPath id="SVGID_12_">
		<use xlink:href="#SVGID_11_"  overflow="visible"/>
	</clipPath>
	<path clip-path="url(#SVGID_12_)" d="M223.482,24.179h3.089c0.719,0,1.065,0,1.065-0.719c0-0.399-0.346-0.399-0.959-0.399h-2.982
		l0.746-4.101c0.16-0.746,0.666-3.302,0.879-3.728c0.32-0.692,0.932-1.225,1.678-1.225c0.16,0,1.092,0,1.757,0.639
		c-1.571,0.16-1.944,1.411-1.944,1.944c0,0.825,0.666,1.251,1.331,1.251c0.932,0,1.97-0.772,1.97-2.157
		c0-1.651-1.651-2.476-3.115-2.476c-1.225,0-3.488,0.639-4.553,4.207c-0.213,0.746-0.32,1.118-1.198,5.645h-2.476
		c-0.666,0-1.065,0-1.065,0.666c0,0.453,0.32,0.453,1.012,0.453h2.37l-2.716,14.166c-0.639,3.488-1.251,6.763-3.115,6.763
		c-0.133,0-1.038,0-1.731-0.639c1.651-0.107,1.997-1.411,1.997-1.944c0-0.825-0.666-1.251-1.331-1.251
		c-0.932,0-1.997,0.772-1.997,2.157c0,1.598,1.598,2.476,3.062,2.476c1.97,0,3.408-2.13,4.047-3.488
		c1.172-2.263,1.997-6.604,2.024-6.87L223.482,24.179"/>
	<path clip-path="url(#SVGID_12_)" d="M240.471,39.384h-0.879c-0.053,0.533-0.32,2.024-0.639,2.263
		c-0.213,0.16-2.13,0.16-2.476,0.16h-4.607c2.609-2.343,3.488-3.036,5.006-4.207c1.864-1.491,3.595-3.036,3.595-5.432
		c0-3.009-2.663-4.873-5.885-4.873c-3.089,0-5.219,2.183-5.219,4.473c0,1.278,1.092,1.411,1.331,1.411
		c0.612,0,1.331-0.426,1.331-1.331c0-0.453-0.16-1.331-1.464-1.331c0.772-1.784,2.476-2.317,3.648-2.317
		c2.503,0,3.808,1.944,3.808,3.967c0,2.183-1.544,3.914-2.343,4.82l-6.044,5.965c-0.266,0.24-0.266,0.293-0.266,0.985h10.331
		L240.471,39.384"/>
</g>
<g>
	<defs>
		<rect id="SVGID_13_" x="338.689" y="12.333" width="30" height="34"/>
	</defs>
	<clipPath id="SVGID_14_">
		<use xlink:href="#SVGID_13_"  overflow="visible"/>
	</clipPath>
	<path clip-path="url(#SVGID_14_)" d="M350.671,24.179h3.089c0.719,0,1.065,0,1.065-0.719c0-0.399-0.346-0.399-0.959-0.399h-2.982
		l0.746-4.101c0.16-0.746,0.666-3.302,0.879-3.728c0.32-0.692,0.932-1.225,1.678-1.225c0.16,0,1.092,0,1.757,0.639
		c-1.571,0.16-1.944,1.411-1.944,1.944c0,0.825,0.666,1.251,1.331,1.251c0.932,0,1.97-0.772,1.97-2.157
		c0-1.651-1.651-2.476-3.115-2.476c-1.225,0-3.488,0.639-4.553,4.207c-0.213,0.746-0.32,1.118-1.198,5.645h-2.476
		c-0.666,0-1.065,0-1.065,0.666c0,0.453,0.32,0.453,1.012,0.453h2.37l-2.716,14.166c-0.639,3.488-1.251,6.763-3.115,6.763
		c-0.133,0-1.038,0-1.731-0.639c1.651-0.107,1.997-1.411,1.997-1.944c0-0.825-0.666-1.251-1.331-1.251
		c-0.932,0-1.997,0.772-1.997,2.157c0,1.598,1.598,2.476,3.062,2.476c1.97,0,3.408-2.13,4.047-3.488
		c1.172-2.263,1.997-6.604,2.024-6.87L350.671,24.179"/>
	<path clip-path="url(#SVGID_14_)" d="M361.828,35.549c1.97,0,3.355,1.358,3.355,4.047c0,3.115-1.811,4.047-3.249,4.047
		c-1.012,0-3.222-0.293-4.26-1.757c1.172-0.053,1.438-0.879,1.438-1.411c0-0.799-0.586-1.385-1.358-1.385
		c-0.719,0-1.411,0.426-1.411,1.465c0,2.343,2.61,3.888,5.645,3.888c3.488,0,5.885-2.343,5.885-4.846
		c0-1.944-1.598-3.914-4.367-4.473c2.636-0.959,3.595-2.849,3.595-4.367c0-1.997-2.29-3.462-5.059-3.462
		c-2.796,0-4.926,1.358-4.926,3.355c0,0.852,0.559,1.331,1.305,1.331c0.772,0,1.278-0.586,1.278-1.278
		c0-0.719-0.506-1.251-1.278-1.305c0.879-1.092,2.609-1.385,3.541-1.385c1.118,0,2.689,0.559,2.689,2.743
		c0,1.039-0.346,2.21-0.985,2.982c-0.825,0.959-1.544,0.985-2.796,1.065c-0.612,0.053-0.666,0.053-0.799,0.08
		c-0.053,0-0.24,0.053-0.24,0.32c0,0.346,0.213,0.346,0.639,0.346H361.828"/>
</g>
</svg>
